#N canvas 16 57 1807 996 12;
#X obj 1070 566 osc~;
#X obj 1070 594 hip~ 5;
#X obj 1070 662 output~;
#X obj 1072 503 mtof;
#X msg 1030 445 60;
#X floatatom 1071 535 5 0 0 0 - - -;
#X obj 1112 249 bng 15 250 50 0 empty empty empty 17 7 0 10 -262144
-1 -1;
#X msg 1073 445 63;
#X msg 1122 445 65;
#X msg 1163 445 67;
#X msg 1206 445 70;
#X msg 1253 445 71;
#X msg 1299 445 72;
#X obj 342 444 osc~;
#X obj 342 472 hip~ 5;
#X obj 342 540 output~;
#X obj 344 381 mtof;
#X msg 302 323 60;
#X msg 615 323 72;
#X floatatom 343 413 5 0 0 0 - - -;
#X msg 345 323 62;
#X msg 394 323 64;
#X msg 435 323 65;
#X msg 478 323 67;
#X msg 525 323 69;
#X msg 571 323 71;
#X obj 1112 300 metro 150;
#X obj 1111 342 random 7;
#X obj 1082 382 select 0 1 2 3 4 5 6;
#X obj 1410 640 osc~;
#X obj 1410 689 hip~ 5;
#X obj 1418 761 output~;
#X obj 1452 373 bng 15 250 50 0 empty empty empty 17 7 0 10 -262144
-1 -1;
#X obj 1452 424 metro 150;
#X obj 1410 542 + 60;
#X obj 1519 542 + 72;
#X obj 1410 591 mtof;
#X obj 1493 634 osc~;
#X obj 1495 693 hip~ 5;
#X obj 1519 591 mtof;
#X obj 1412 485 random 12;
#X obj 1517 486 random 12;
#X connect 0 0 1 0;
#X connect 1 0 2 0;
#X connect 1 0 2 1;
#X connect 3 0 5 0;
#X connect 4 0 3 0;
#X connect 5 0 0 0;
#X connect 6 0 26 0;
#X connect 7 0 3 0;
#X connect 8 0 3 0;
#X connect 9 0 3 0;
#X connect 10 0 3 0;
#X connect 11 0 3 0;
#X connect 12 0 3 0;
#X connect 13 0 14 0;
#X connect 14 0 15 0;
#X connect 14 0 15 1;
#X connect 16 0 19 0;
#X connect 17 0 16 0;
#X connect 18 0 16 0;
#X connect 19 0 13 0;
#X connect 20 0 16 0;
#X connect 21 0 16 0;
#X connect 22 0 16 0;
#X connect 23 0 16 0;
#X connect 24 0 16 0;
#X connect 25 0 16 0;
#X connect 26 0 27 0;
#X connect 27 0 28 0;
#X connect 28 0 4 0;
#X connect 28 1 7 0;
#X connect 28 2 8 0;
#X connect 28 3 9 0;
#X connect 28 4 10 0;
#X connect 28 5 11 0;
#X connect 28 6 12 0;
#X connect 29 0 30 0;
#X connect 30 0 31 0;
#X connect 32 0 33 0;
#X connect 33 0 40 0;
#X connect 33 0 41 0;
#X connect 34 0 36 0;
#X connect 35 0 39 0;
#X connect 36 0 29 0;
#X connect 37 0 38 0;
#X connect 38 0 31 1;
#X connect 39 0 37 0;
#X connect 40 0 34 0;
#X connect 41 0 35 0;
