#N canvas 16 57 1807 996 12;
#X obj 188 500 hip~ 5;
#X obj 188 544 output~;
#X obj 156 398 osc~ 440;
#X msg 231 398 0;
#X msg 275 398 0.1;
#X msg 316 398 0.2;
#X msg 356 398 0.4;
#X msg 398 398 0.8;
#X obj 188 456 *~;
#X obj 1052 502 hip~ 5;
#X obj 1052 546 output~;
#X obj 1020 400 osc~ 440;
#X obj 1052 458 *~;
#X obj 1131 400 hsl 128 15 0 1 0 0 empty empty empty -2 -8 0 10 -262144
-1 -1 5800 1;
#X connect 0 0 1 0;
#X connect 0 0 1 1;
#X connect 2 0 8 0;
#X connect 3 0 8 1;
#X connect 4 0 8 1;
#X connect 5 0 8 1;
#X connect 6 0 8 1;
#X connect 7 0 8 1;
#X connect 8 0 0 0;
#X connect 9 0 10 0;
#X connect 9 0 10 1;
#X connect 11 0 12 0;
#X connect 12 0 9 0;
#X connect 13 0 12 1;
