#N canvas 525 186 1634 1163 12;
#X obj 232 56 tgl 15 0 empty empty empty 17 7 0 10 -262144 -1 -1 0
1;
#X obj 232 88 metro 200;
#X obj 232 156 counter 0 0 15;
#X floatatom 232 192 5 0 0 0 - - -;
#X floatatom 292 56 5 0 0 0 - - -;
#X obj 232 124 bng 15 250 50 0 empty empty empty 17 7 0 10 -262144
-1 -1;
#N canvas 0 23 450 278 (subpatch) 0;
#X array seq 15 float 1;
#A 0 1 1 0 0 1 1 0 0 1 1 0 0 1 0 1;
#X coords 0 1 15 0 200 20 1 0 0;
#X restore 836 613 graph;
#X floatatom 836 542 5 0 1 0 - - -;
#X floatatom 936 542 5 0 15 0 - - -;
#X obj 836 577 tabwrite seq;
#X obj 836 506 unpack 0 0;
#X msg 657 342 \$1 4;
#X obj 657 310 tgl 15 0 empty empty empty 17 7 0 10 -262144 -1 -1 1
1;
#X obj 709 310 tgl 15 0 empty empty empty 17 7 0 10 -262144 -1 -1 1
1;
#X obj 763 310 tgl 15 0 empty empty empty 17 7 0 10 -262144 -1 -1 0
1;
#X obj 814 310 tgl 15 0 empty empty empty 17 7 0 10 -262144 -1 -1 0
1;
#X msg 709 342 \$1 5;
#X msg 763 342 \$1 6;
#X msg 814 342 \$1 7;
#X obj 867 310 tgl 15 0 empty empty empty 17 7 0 10 -262144 -1 -1 1
1;
#X obj 919 310 tgl 15 0 empty empty empty 17 7 0 10 -262144 -1 -1 1
1;
#X obj 973 310 tgl 15 0 empty empty empty 17 7 0 10 -262144 -1 -1 0
1;
#X obj 1024 310 tgl 15 0 empty empty empty 17 7 0 10 -262144 -1 -1
0 1;
#X msg 867 342 \$1 8;
#X msg 919 342 \$1 9;
#X msg 973 342 \$1 10;
#X msg 1024 342 \$1 11;
#X obj 1081 310 tgl 15 0 empty empty empty 17 7 0 10 -262144 -1 -1
1 1;
#X obj 1133 310 tgl 15 0 empty empty empty 17 7 0 10 -262144 -1 -1
0 1;
#X obj 1187 310 tgl 15 0 empty empty empty 17 7 0 10 -262144 -1 -1
0 1;
#X obj 1238 310 tgl 15 0 empty empty empty 17 7 0 10 -262144 -1 -1
1 1;
#X msg 1081 342 \$1 12;
#X msg 1133 342 \$1 13;
#X msg 1187 342 \$1 14;
#X msg 1238 342 \$1 15;
#X obj 494 310 tgl 15 0 empty empty empty 17 7 0 10 -262144 -1 -1 1
1;
#X obj 546 310 tgl 15 0 empty empty empty 17 7 0 10 -262144 -1 -1 0
1;
#X obj 600 310 tgl 15 0 empty empty empty 17 7 0 10 -262144 -1 -1 0
1;
#X msg 600 342 \$1 3;
#X msg 546 342 \$1 2;
#X msg 494 342 \$1 1;
#X obj 441 310 tgl 15 0 empty empty empty 17 7 0 10 -262144 -1 -1 1
1;
#X msg 441 342 \$1 0;
#X obj 235 245 tabread seq;
#X floatatom 235 281 5 0 0 0 - - -;
#X obj 235 316 sel 1;
#X obj 69 497 tgl 15 0 empty empty empty 17 7 0 10 -262144 -1 -1 0
1;
#X msg 69 541 \; pd dsp \$1;
#X floatatom 197 466 5 0 0 0 - - -;
#X obj 199 566 osc~ 60;
#X obj 198 631 *~;
#X obj 198 664 dac~;
#X obj 273 597 line~;
#X obj 338 500 delay 20;
#X obj 259 439 bng 15 250 50 0 empty empty empty 17 7 0 10 -262144
-1 -1;
#X obj 199 533 line~;
#X msg 337 533 1 \, 0 100;
#X msg 259 500 0 \, 1 10;
#X msg 156 500 \$1 \, 20 70;
#X obj 155 430 random 1000;
#X connect 0 0 1 0;
#X connect 1 0 5 0;
#X connect 2 0 3 0;
#X connect 3 0 43 0;
#X connect 4 0 1 1;
#X connect 5 0 2 0;
#X connect 7 0 9 0;
#X connect 8 0 9 1;
#X connect 10 0 7 0;
#X connect 10 1 8 0;
#X connect 11 0 10 0;
#X connect 12 0 11 0;
#X connect 13 0 16 0;
#X connect 14 0 17 0;
#X connect 15 0 18 0;
#X connect 16 0 10 0;
#X connect 17 0 10 0;
#X connect 18 0 10 0;
#X connect 19 0 23 0;
#X connect 20 0 24 0;
#X connect 21 0 25 0;
#X connect 22 0 26 0;
#X connect 23 0 10 0;
#X connect 24 0 10 0;
#X connect 25 0 10 0;
#X connect 26 0 10 0;
#X connect 27 0 31 0;
#X connect 28 0 32 0;
#X connect 29 0 33 0;
#X connect 30 0 34 0;
#X connect 31 0 10 0;
#X connect 32 0 10 0;
#X connect 33 0 10 0;
#X connect 34 0 10 0;
#X connect 35 0 40 0;
#X connect 36 0 39 0;
#X connect 37 0 38 0;
#X connect 38 0 10 0;
#X connect 39 0 10 0;
#X connect 40 0 10 0;
#X connect 41 0 42 0;
#X connect 42 0 10 0;
#X connect 43 0 44 0;
#X connect 44 0 45 0;
#X connect 45 0 54 0;
#X connect 46 0 47 0;
#X connect 48 0 58 0;
#X connect 49 0 50 0;
#X connect 50 0 51 0;
#X connect 50 0 51 1;
#X connect 52 0 50 1;
#X connect 53 0 56 0;
#X connect 54 0 53 0;
#X connect 54 0 57 0;
#X connect 54 0 59 0;
#X connect 55 0 49 0;
#X connect 56 0 52 0;
#X connect 57 0 52 0;
#X connect 58 0 55 0;
#X connect 59 0 48 0;
