#N canvas 1499 199 815 536 12;
#X msg 385 213 123;
#X obj 385 287 print;
#X obj 385 250 * 2;
#X msg 440 213 3;
#X msg 490 213 4;
#X connect 0 0 2 0;
#X connect 2 0 1 0;
#X connect 3 0 2 1;
#X connect 4 0 2 1;
