#N canvas 771 231 815 536 12;
#X obj 310 276 osc~;
#X obj 310 304 hip~ 5;
#X obj 328 356 output~;
#X obj 367 276 osc~;
#X obj 367 304 hip~ 5;
#X msg 310 248 200;
#X msg 371 244 200;
#X connect 0 0 1 0;
#X connect 1 0 2 0;
#X connect 3 0 4 0;
#X connect 4 0 2 1;
#X connect 5 0 0 0;
#X connect 6 0 3 0;
