#N canvas 840 318 1526 837 12;
#X obj 535 256 prepend 1st;
#X obj 421 256 prepend 2nd;
#X obj 321 256 prepend 3rd;
#X msg 378 169 year;
#X obj 420 314 print;
#X obj 1259 480 prepend 1st;
#X obj 1145 480 prepend 2nd;
#X obj 1045 480 prepend 3rd;
#X msg 1145 427 year;
#X obj 1144 528 print;
#X obj 378 201 t a a a;
#X connect 0 0 4 0;
#X connect 1 0 4 0;
#X connect 2 0 4 0;
#X connect 3 0 10 0;
#X connect 5 0 9 0;
#X connect 6 0 9 0;
#X connect 7 0 9 0;
#X connect 8 0 6 0;
#X connect 8 0 5 0;
#X connect 8 0 7 0;
#X connect 10 0 2 0;
#X connect 10 1 1 0;
#X connect 10 2 0 0;
