#N canvas 1499 199 815 536 12;
#X msg 141 91 123;
#X msg 198 91 234;
#X obj 170 146 +;
#X obj 171 194 print;
#X msg 275 89 123;
#X msg 332 89 234;
#X obj 305 192 print;
#X obj 304 144 -;
#X msg 415 88 123;
#X msg 472 88 234;
#X obj 445 191 print;
#X obj 444 143 *;
#X msg 546 86 123;
#X msg 603 86 234;
#X obj 576 189 print;
#X obj 575 141 /;
#X connect 0 0 2 0;
#X connect 1 0 2 1;
#X connect 2 0 3 0;
#X connect 4 0 7 0;
#X connect 5 0 7 1;
#X connect 7 0 6 0;
#X connect 8 0 11 0;
#X connect 9 0 11 1;
#X connect 11 0 10 0;
#X connect 12 0 15 0;
#X connect 13 0 15 1;
#X connect 15 0 14 0;
