#N canvas 661 316 1526 837 12;
#X obj 680 236 bng 15 250 50 0 empty empty empty 17 7 0 10 -262144
-1 -1;
#X obj 679 281 time;
#X floatatom 749 347 5 0 0 0 - - -;
#X floatatom 702 347 5 0 0 0 - - -;
#X floatatom 655 347 5 0 0 0 - - -;
#X floatatom 608 347 5 0 0 0 - - -;
#X obj 934 240 bng 15 250 50 0 empty empty empty 17 7 0 10 -262144
-1 -1;
#X obj 975 239 bng 15 250 50 0 empty empty empty 17 7 0 10 -262144
-1 -1;
#X obj 940 279 timer;
#X floatatom 938 324 80 0 0 0 - - -;
#X connect 0 0 1 0;
#X connect 1 0 5 0;
#X connect 1 1 4 0;
#X connect 1 2 3 0;
#X connect 1 3 2 0;
#X connect 6 0 8 0;
#X connect 7 0 8 1;
#X connect 8 0 9 0;
