#N canvas 422 441 1526 837 12;
#X obj 830 240 bng 15 250 50 0 empty empty empty 17 7 0 10 -262144
-1 -1;
#X obj 830 310 +;
#X obj 830 347 print;
#X floatatom 883 311 5 0 0 0 - - -;
#X msg 830 273 1;
#X connect 0 0 4 0;
#X connect 1 0 2 0;
#X connect 1 0 3 0;
#X connect 3 0 1 1;
#X connect 4 0 1 0;
